<svg id="Layer_1" data-name="Layer 1" xmlns="http://www.w3.org/2000/svg" viewBox="0 0 99.99 30.15"><defs><style>.cls-1{fill:#868e96;fill-rule:evenodd;}</style></defs><path class="cls-1" d="M72,40.7C66.24,45,57.8,47.27,50.55,47.27a38.91,38.91,0,0,1-26.25-10c-.54-.5-.05-1.16.6-.78a52.81,52.81,0,0,0,26.26,7,52.26,52.26,0,0,0,20-4.09c1-.42,1.81.64.85,1.35m2.41-2.76c-.74-.95-4.9-.45-6.78-.23-.57.07-.65-.42-.14-.78,3.32-2.34,8.77-1.66,9.41-.88s-.17,6.25-3.29,8.86c-.48.4-.94.18-.72-.35.7-1.75,2.27-5.67,1.52-6.62" transform="translate(-10 -17.13)"/><path class="cls-1" d="M67.8,20.43V18.16a.57.57,0,0,1,.55-.58h10.2a.57.57,0,0,1,.59.58V20.1a3.27,3.27,0,0,1-.77,1.43L73.1,29.05a11.3,11.3,0,0,1,5.8,1.25,1.06,1.06,0,0,1,.54.88v2.43a.55.55,0,0,1-.75.52,11.73,11.73,0,0,0-10.74,0c-.36.2-.73-.19-.73-.52v-2.3a2.75,2.75,0,0,1,.38-1.56L73.71,21H68.4a.56.56,0,0,1-.59-.57M30.69,34.6H27.6a.57.57,0,0,1-.55-.52V18.19a.58.58,0,0,1,.59-.57h2.89a.59.59,0,0,1,.56.53v2.08h.06a4.08,4.08,0,0,1,4.07-2.94c1.94,0,3.15.93,4,2.94A4.58,4.58,0,0,1,47.1,19c1,1.34.78,3.28.78,5V34a.58.58,0,0,1-.6.57h-3.1a.59.59,0,0,1-.55-.57V25.6a19.67,19.67,0,0,0-.09-3,1.61,1.61,0,0,0-1.82-1.36,2.06,2.06,0,0,0-1.85,1.3,9.53,9.53,0,0,0-.29,3V34a.58.58,0,0,1-.59.58h-3.1a.59.59,0,0,1-.56-.58V25.6c0-1.77.29-4.38-1.91-4.38s-2.14,2.54-2.14,4.38V34a.58.58,0,0,1-.59.58M87.9,17.3c4.59,0,7.07,3.94,7.07,9C95,31.1,92.23,35,87.9,35c-4.5,0-7-4-7-8.86s2.49-8.8,7-8.8m0,3.24c-2.28,0-2.42,3.11-2.42,5s0,6.08,2.39,6.08,2.52-3.34,2.52-5.38A14.83,14.83,0,0,0,90,22.07a1.94,1.94,0,0,0-2-1.54m13,14.07H97.85a.6.6,0,0,1-.56-.57V18.14a.58.58,0,0,1,.59-.52h2.87a.62.62,0,0,1,.56.45V20.5h0c.87-2.17,2.08-3.21,4.22-3.21a4,4,0,0,1,3.61,1.87c.8,1.27.8,3.41.8,4.95v10a.59.59,0,0,1-.59.5h-3.1a.6.6,0,0,1-.55-.5V25.48c0-1.74.2-4.28-1.93-4.28a2,2,0,0,0-1.8,1.27,7,7,0,0,0-.5,3V34a.59.59,0,0,1-.6.58M59.69,27a6.07,6.07,0,0,1-.58,3.28A2.5,2.5,0,0,1,57,31.69c-1.19,0-1.88-.9-1.88-2.24,0-2.64,2.36-3.11,4.6-3.11V27m3.12,7.54a.63.63,0,0,1-.73.07,7.44,7.44,0,0,1-1.77-2.06,6.15,6.15,0,0,1-5.11,2.25c-2.6,0-4.63-1.61-4.63-4.82a5.26,5.26,0,0,1,3.3-5.06,21.68,21.68,0,0,1,5.82-1.08v-.4a3.92,3.92,0,0,0-.38-2.24,2.06,2.06,0,0,0-1.74-.8,2.34,2.34,0,0,0-2.48,1.86.64.64,0,0,1-.54.56l-3-.32a.54.54,0,0,1-.46-.65c.69-3.64,4-4.73,6.92-4.73a7,7,0,0,1,4.66,1.54C64.18,20.07,64,22,64,24v4.82a4.21,4.21,0,0,0,1.17,2.87.59.59,0,0,1,0,.83l-2.37,2.06h0M19.12,27a6.07,6.07,0,0,1-.58,3.28,2.5,2.5,0,0,1-2.14,1.4c-1.19,0-1.88-.9-1.88-2.24,0-2.64,2.36-3.11,4.6-3.11V27m3.12,7.54a.64.64,0,0,1-.73.07,7.86,7.86,0,0,1-1.78-2.06,6.13,6.13,0,0,1-5.1,2.25C12,34.82,10,33.22,10,30a5.26,5.26,0,0,1,3.3-5.06,21.29,21.29,0,0,1,5.82-1.07v-.4a4,4,0,0,0-.37-2.25,2.07,2.07,0,0,0-1.74-.8,2.37,2.37,0,0,0-2.5,1.86.66.66,0,0,1-.54.57l-3-.33a.55.55,0,0,1-.46-.65c.69-3.64,4-4.73,6.92-4.73a7,7,0,0,1,4.66,1.54C23.6,20.08,23.45,22,23.45,24v4.82a4.21,4.21,0,0,0,1.17,2.87.59.59,0,0,1,0,.83l-2.36,2h0" transform="translate(-10 -17.13)"/></svg>