<svg id="Layer_1" data-name="Layer 1" xmlns="http://www.w3.org/2000/svg" viewBox="0 0 107.3 35.17"><defs><style>.cls-1{fill:#868e96;}</style></defs><path class="cls-1" d="M32.38,26.45H19.86v3.71h8.88c-.44,5.2-4.78,7.43-8.87,7.43a9.75,9.75,0,0,1-9.8-9.71V27.7a9.78,9.78,0,0,1,9.81-9.95,9.64,9.64,0,0,1,6.7,2.68l2.6-2.69A13.23,13.23,0,0,0,19.75,14,13.88,13.88,0,0,0,6,27.64a13.84,13.84,0,0,0,14,13.68c7.31,0,12.66-5,12.66-12.41a10.94,10.94,0,0,0-.23-2.46Z" transform="translate(-5.99 -14.02)"/><path id="A" class="cls-1" d="M42.63,23.75a8.78,8.78,0,1,0,8.81,8.81,8.68,8.68,0,0,0-8.81-8.81Zm0,3.45a5,5,0,0,1,4.92,5.33,5,5,0,1,1-9.93,0,5.06,5.06,0,0,1,5-5.31Z" transform="translate(-5.99 -14.02)"/><path id="A-2" data-name="A" class="cls-1" d="M61.81,23.75a8.78,8.78,0,1,0,8.81,8.81,8.68,8.68,0,0,0-8.81-8.81Zm0,3.45a5,5,0,0,1,4.92,5.33,5,5,0,1,1-9.93,0,5.06,5.06,0,0,1,5-5.31Z" transform="translate(-5.99 -14.02)"/><path class="cls-1" d="M80.63,23.76a8.78,8.78,0,0,0-.08,17.55,5.75,5.75,0,0,0,4.8-2.13v1.73c0,3-1.84,4.84-4.62,4.84a4.89,4.89,0,0,1-4.5-3.12L72.86,44a8.45,8.45,0,0,0,7.9,5.16c4.7,0,8.26-2.95,8.26-9.14V24.29H85.36v1.49a6.21,6.21,0,0,0-4.73-2ZM81,27.2c2.31,0,4.68,2,4.68,5.35s-2.37,5.31-4.73,5.31a5,5,0,0,1-4.86-5.28A5.06,5.06,0,0,1,81,27.2Z" transform="translate(-5.99 -14.02)"/><path class="cls-1" d="M105.4,23.74c-4.45,0-8.18,3.54-8.18,8.76a8.48,8.48,0,0,0,8.6,8.81,8.89,8.89,0,0,0,7.35-3.85l-3-2a4.89,4.89,0,0,1-4.29,2.41,4.53,4.53,0,0,1-4.31-2.66l11.77-4.88-.6-1.43a8,8,0,0,0-7.3-5.14Zm.15,3.38A3.5,3.5,0,0,1,108.8,29l-7.86,3.29a4.87,4.87,0,0,1,4.6-5.16Z" transform="translate(-5.99 -14.02)"/><path class="cls-1" d="M91.6,40.79h3.86V14.93H91.6Z" transform="translate(-5.99 -14.02)"/></svg>