<svg id="Layer_1" data-name="Layer 1" xmlns="http://www.w3.org/2000/svg" viewBox="0 0 971.66 236.32"><defs><style>.cls-1{fill:#444;opacity:0.9;}.cls-2{fill:#0189ff;}</style></defs><path class="cls-1" d="M407.89,204.71,359.2,253.44a.8.8,0,0,0,0,1.13h0L374.66,270a.8.8,0,0,1,0,1.13l-50.32,50.59a.8.8,0,0,1-1.13,0L205.47,204.57a.8.8,0,0,1,0-1.13h0L323,85.91a.8.8,0,0,1,1.13,0h0l50.61,50.68a.8.8,0,0,1,0,1.13h0L359.1,153a.79.79,0,0,0,0,1.13l48.81,49.5A.8.8,0,0,1,407.89,204.71Zm-71.67,49.94a.88.88,0,0,0,0-1.24l-48.85-49.16a.88.88,0,0,1,0-1.24l49-49a.88.88,0,0,0,0-1.24l0,0-16.22-15.26a.89.89,0,0,0-1.22,0l-66.09,65.74a.88.88,0,0,0,0,1.24L319,270.63a.88.88,0,0,0,1.24,0Z" transform="translate(-205.23 -85.67)"/><path class="cls-1" d="M554.59,160.22c-5.92,9.67,7.73,16.1,14.78,19.1,17.24,7.33,43.41,15.86,51.64,34.35,5.56,12.48,3.07,28.36-5.08,38.89-14.29,18.45-42.77,21.69-63.83,17.21a126.2,126.2,0,0,1-39.88-15.85.58.58,0,0,1-.2-.79l0-.06,15.86-20.17a.55.55,0,0,1,.78-.16q16.39,8.82,36.54,8.17c9.41-.3,22-4,20.51-16.17-1.2-10-29.36-17.77-38-21-18.86-7.11-32.38-23.15-29.3-44.23,2.59-17.76,18-28.91,35-31.77q34.85-5.86,66,13.16a1,1,0,0,1,.32,1.35.56.56,0,0,1,0,.08l-15.1,20a.79.79,0,0,1-1,.29C593.66,159.08,561.57,148.85,554.59,160.22Z" transform="translate(-205.23 -85.67)"/><path class="cls-1" d="M714,271.65c-35.8.28-65.35-16.29-71.75-53.91-9.29-54.56,24.84-98.92,82.56-90.53,30.73,4.47,51.23,28.56,56,58C788.23,231.5,763.91,271.26,714,271.65Zm-10.46-115.1c-11,2.64-18.07,11.66-21.07,22.14-5.25,18.33-6.32,53.2,15.82,62,10,4,23.7,3,32.3-3.63,14.42-11.12,14-37.76,10.62-53.47C737.06,164.53,723.83,151.68,703.54,156.55Z" transform="translate(-205.23 -85.67)"/><path class="cls-1" d="M813.94,268.79a4.09,4.09,0,0,0-1.21,0,.21.21,0,0,1-.24-.18v0l0-139.3a.45.45,0,0,1,.39-.45c16.23-2.28,33.83-3.92,50.09-1.19,45.26,7.59,61.62,47,54.47,88.66-6.37,37-34.75,55.46-71.27,55.26A201.52,201.52,0,0,1,813.94,268.79Zm6.63-5c10.11,1.71,20.4,3.11,30.46,2.43,30.61-2.05,53.07-18,59.32-48.35,3.54-17.15,2-38.75-6.37-54.51s-21.88-25.64-40.51-29.77c-15.22-3.39-28.35-1.92-42.8.36a1.39,1.39,0,0,0-1.17,1.37V262.49A1.15,1.15,0,0,0,820.57,263.75Z" transform="translate(-205.23 -85.67)"/><path class="cls-1" d="M961.66,193.42l63.18.12a.41.41,0,0,1,.41.41h0v4.14a.41.41,0,0,1-.41.41h0l-63.18,0a.41.41,0,0,0-.41.41v64.58a.41.41,0,0,0,.41.41l78.43.35a.41.41,0,0,1,.41.41h0v3.47a.41.41,0,0,1-.41.41h0l-85.18.27a.41.41,0,0,1-.41-.41V129.3a.41.41,0,0,1,.41-.41l81.92.14a.41.41,0,0,1,.41.41h0v4.15a.41.41,0,0,1-.41.41H961.66a.41.41,0,0,0-.41.41V193A.41.41,0,0,0,961.66,193.42Z" transform="translate(-205.23 -85.67)"/><path class="cls-1" d="M1120.36,259.69l48.94-130.47a.77.77,0,0,1,.74-.5l6.17.09c.61,0,.81.3.59.87l-53.26,137.05a3.85,3.85,0,0,1-7.18,0l-53.25-137c-.2-.51,0-.78.53-.79l5.95-.12a.84.84,0,0,1,.8.54l49.44,130.37a.28.28,0,0,0,.36.17A.26.26,0,0,0,1120.36,259.69Z" transform="translate(-205.23 -85.67)"/><path class="cls-2" d="M425,203.49,376.45,154.6a1.2,1.2,0,0,1,0-1.87,192,192,0,0,1,21.3-20.22.54.54,0,0,1,.72,0l70.88,70.88a.55.55,0,0,1,0,.88l-70.6,70.63a.55.55,0,0,1-.82,0,256.81,256.81,0,0,1-22.22-20.27.88.88,0,0,1,0-1.24L425,204.07A.37.37,0,0,0,425,203.49Z" transform="translate(-205.23 -85.67)"/><path class="cls-2" d="M336.22,254.65l-16,16a.88.88,0,0,1-1.24,0l-66.18-66.18a.88.88,0,0,1,0-1.24l66.09-65.74a.89.89,0,0,1,1.22,0l16.22,15.26a.88.88,0,0,1,0,1.24l0,0-49,49a.88.88,0,0,0,0,1.24l48.85,49.16A.88.88,0,0,1,336.22,254.65Z" transform="translate(-205.23 -85.67)"/></svg>