<svg id="Layer_1" data-name="Layer 1" xmlns="http://www.w3.org/2000/svg" viewBox="0 0 971.6 236.15"><defs><style>.cls-1{fill:#fff;opacity:0.9;isolation:isolate;}</style></defs><path class="cls-1" d="M320.84,170.18l-48.7,48.7a.78.78,0,0,0,0,1.1h0l15.5,15.4a.78.78,0,0,1,0,1.1l-50.3,50.6a.78.78,0,0,1-1.1,0l-117.8-117a.78.78,0,0,1,0-1.1h0l117.5-117.6a.78.78,0,0,1,1.1,0h0l50.6,50.7a.78.78,0,0,1,0,1.1h0L272,118.38a.78.78,0,0,0,0,1.1l48.8,49.5A.91.91,0,0,1,320.84,170.18Zm-71.7,49.9a.91.91,0,0,0,0-1.2l-48.9-49.2a.91.91,0,0,1,0-1.2l49-49a.91.91,0,0,0,0-1.2h0L233,103a.91.91,0,0,0-1.2,0l-66.1,65.7a.91.91,0,0,0,0,1.2l66.2,66.2a.91.91,0,0,0,1.2,0Z" transform="translate(-118.22 -51.15)"/><path class="cls-1" d="M467.54,125.68c-5.9,9.7,7.7,16.1,14.8,19.1,17.2,7.3,43.4,15.9,51.6,34.3,5.6,12.5,3.1,28.4-5.1,38.9-14.3,18.5-42.8,21.7-63.8,17.2a125.69,125.69,0,0,1-39.9-15.8.54.54,0,0,1-.2-.8v-.1l15.9-20.2a.63.63,0,0,1,.8-.2c10.9,5.9,23.1,8.6,36.5,8.2,9.4-.3,22-4,20.5-16.2-1.2-10-29.4-17.8-38-21-18.9-7.1-32.4-23.1-29.3-44.2,2.6-17.8,18-28.9,35-31.8q34.8-5.85,66,13.2a1,1,0,0,1,.3,1.4.1.1,0,0,1-.1.1l-15.1,20a1,1,0,0,1-1,.3C506.64,124.58,474.54,114.38,467.54,125.68Z" transform="translate(-118.22 -51.15)"/><path class="cls-1" d="M626.94,237.08c-35.8.3-65.3-16.3-71.8-53.9-9.3-54.6,24.8-98.9,82.6-90.5,30.7,4.5,51.2,28.6,56,58C701.14,197,676.84,236.78,626.94,237.08Zm-10.5-115c-11,2.6-18.1,11.7-21.1,22.1-5.2,18.3-6.3,53.2,15.8,62,10,4,23.7,3,32.3-3.6,14.4-11.1,14-37.8,10.6-53.5C650,130,636.74,117.18,616.44,122.08Z" transform="translate(-118.22 -51.15)"/><path class="cls-1" d="M726.84,234.28a2.44,2.44,0,0,0-1.2,0,.22.22,0,0,1-.2-.2h0V94.78a.43.43,0,0,1,.4-.4c16.2-2.3,33.8-3.9,50.1-1.2,45.3,7.6,61.6,47,54.5,88.7-6.4,37-34.8,55.5-71.3,55.3A219.06,219.06,0,0,1,726.84,234.28Zm6.7-5c10.1,1.7,20.4,3.1,30.5,2.4,30.6-2,53.1-18,59.3-48.3,3.5-17.2,2-38.8-6.4-54.5s-21.9-25.6-40.5-29.8c-15.2-3.4-28.3-1.9-42.8.4a1.4,1.4,0,0,0-1.2,1.4v127.2C732.44,228.68,732.84,229.08,733.54,229.28Z" transform="translate(-118.22 -51.15)"/><path class="cls-1" d="M874.64,158.88l63.2.1a.43.43,0,0,1,.4.4h0v4.1a.43.43,0,0,1-.4.4h-63.2a.43.43,0,0,0-.4.4v64.6a.43.43,0,0,0,.4.4l78.4.3a.43.43,0,0,1,.4.4h0v3.5a.43.43,0,0,1-.4.4h0l-85.2.3a.43.43,0,0,1-.4-.4V94.68a.43.43,0,0,1,.4-.4l81.9.1a.43.43,0,0,1,.4.4h0v4.1a.43.43,0,0,1-.4.4h-75.2a.43.43,0,0,0-.4.4v58.8A.46.46,0,0,0,874.64,158.88Z" transform="translate(-118.22 -51.15)"/><path class="cls-1" d="M1033.34,225.18l48.9-130.5a.75.75,0,0,1,.7-.5l6.2.1q.9,0,.6.9l-53.3,137.1a3.84,3.84,0,0,1-5,2.2,4,4,0,0,1-2.2-2.2L976,95.28c-.2-.5,0-.8.5-.8l5.9-.1a.79.79,0,0,1,.8.5l49.4,130.4c0,.1.2.2.4.2Z" transform="translate(-118.22 -51.15)"/><path class="cls-1" d="M337.94,169l-48.6-48.9a1.23,1.23,0,0,1,0-1.9A193.54,193.54,0,0,1,310.64,98a.48.48,0,0,1,.7,0l70.9,70.9a.56.56,0,0,1,0,.9l-70.6,70.6c-.3.3-.5.3-.8,0a250.75,250.75,0,0,1-22.2-20.3.91.91,0,0,1,0-1.2l49.4-49.4C338.14,169.38,338.14,169.18,337.94,169Z" transform="translate(-118.22 -51.15)"/></svg>