<svg id="Layer_1" data-name="Layer 1" xmlns="http://www.w3.org/2000/svg" viewBox="0 0 2188.21 418.46"><defs><style>.cls-1{fill:#868e96;fill-rule:evenodd;}</style></defs><path class="cls-1" d="M247.83,177.17,367.62,393.4l-7.79,9.34L156.05,177.17Zm144.69,262.9L520.07,228.5l12.44,1.56L439.18,521l-46.66-80.89Zm157.1-259.79-248.9-3.11-3.12-10.88L594.73,102.5l-45.11,77.78Z" transform="translate(-156.05 -102.5)"/><path class="cls-1" d="M719.19,440.87V182.16h27l193.39,173.2a129.57,129.57,0,0,1,14.06,14.07c5.06,5.78,10.11,11.91,15.51,18.41-1.44-8.32-2.16-17-2.89-26s-1.07-21.65-1.07-37.53V182.16h39.7v258.7H980.77L782,261.19a36.9,36.9,0,0,1-4.32-4c-9.74-9-17.31-17.32-22-25.25,1.08,7.93,1.81,16.22,2.17,25.25q1.07,13,1.08,31.39V440.86h-39.7Zm459.66-35.72h214V217.53h-214Zm-43.3-161.64c0-23.46,4.32-39.69,12.62-48.35,8.67-8.66,24.54-13,48.36-13h178.59q35.19,0,47.64,13c8.65,8.65,12.63,24.54,12.63,48.35V379.9c0,23.81-4,40.05-12.63,48.35-8.3,8.67-24.18,12.63-47.64,12.63H1196.53c-23.82,0-39.69-4.31-48.36-12.63-8.3-8.66-12.62-24.9-12.62-48.35V243.51Zm376.32,197.36,125.19-133.13L1509.71,182.16h62.41l90.55,98.15,85.14-98.15h53.77L1687.92,303.75l138.56,137.11h-62.06l-102.82-110-95.27,110h-54.46Zm394.36,0V182.16h43.29v258.7h-43.29Zm398.33-223.34H2121.27V289.7h163.08c23.09,0,38.61,4.31,47.28,12.62,8.3,8.66,12.63,24.55,12.63,48.36V379.9c0,23.81-4,40.05-12.27,48.35-8.3,8.67-24.16,12.63-47.63,12.63H2133.19c-23.46,0-39.31-4-48-12.63-8.31-8.66-12.63-24.54-12.63-48.35v-7.22l40.05-9.39v41.86h192.66V327.22H2142.93c-23.46,0-39.34-4.33-48-13-8.29-8.3-12.26-24.52-12.26-48.34V243.51c0-23.81,4-39.69,12.26-48.35,8.66-8.66,24.55-13,48-13h137.83c23.07,0,39,4.34,47.62,12.64s13,23.1,13,44.37v5.4L2304.56,255Z" transform="translate(-156.05 -102.5)"/></svg>