<svg id="Layer_1" data-name="Layer 1" xmlns="http://www.w3.org/2000/svg" viewBox="0 0 2500 749.8"><defs><style>.cls-1{fill:#868e96;}</style></defs><path class="cls-1" d="M374.91.6C167.86.6,0,168.45,0,375.5S167.86,750.4,374.91,750.4,749.82,582.56,749.82,375.5,582,.62,374.9.62v0ZM546.84,541.32a23.36,23.36,0,0,1-32.11,7.77l0,0c-88-53.77-198.83-65.94-329.33-36.13a23.37,23.37,0,0,1-10.46-45.56H175c142.81-32.63,265.31-18.58,364.13,41.81A23.38,23.38,0,0,1,546.84,541.32Zm45.88-102.09a29.22,29.22,0,0,1-40.2,9.64C451.75,386.93,298.13,369,178.94,405.17a29.23,29.23,0,1,1-17-55.93c136.16-41.31,305.42-21.3,421.15,49.81a29.23,29.23,0,0,1,9.62,40.19Zm3.94-106.29c-120.83-71.77-320.18-78.37-435.55-43.36a35.06,35.06,0,1,1-20.35-67.11c132.43-40.2,352.58-32.43,491.69,50.15a35,35,0,0,1,12.31,48l0,.07a35,35,0,0,1-48,12.27ZM1020,346.69c-64.73-15.44-76.24-26.27-76.24-49,0-21.5,20.24-36,50.37-36,29.19,0,58.11,11,88.46,33.62a4.27,4.27,0,0,0,6-1l31.61-44.55a4.26,4.26,0,0,0-.81-5.77C1083.25,215,1042.6,201,995.06,201c-69.89,0-118.73,42-118.73,102,0,64.35,42.13,87.14,114.92,104.73,61.92,14.27,72.39,26.22,72.39,47.59,0,23.68-21.13,38.41-55.15,38.41-37.79,0-68.63-12.76-103.1-42.58a4.46,4.46,0,0,0-3.09-1,4.18,4.18,0,0,0-2.91,1.48l-35.46,42.17a4.26,4.26,0,0,0,.4,5.91c40.12,35.82,89.45,54.71,142.73,54.71,75.3,0,124-41.14,124-104.85.14-53.75-32-83.52-110.89-102.7Zm281.42-63.84c-32.64,0-59.41,12.86-81.52,39.2V292.4a4.23,4.23,0,0,0-4.21-4.25h-58a4.23,4.23,0,0,0-4.21,4.25V621.9a4.24,4.24,0,0,0,4.21,4.25h58a4.24,4.24,0,0,0,4.21-4.25v-104c22.11,24.76,48.88,36.89,81.52,36.89,60.66,0,122.08-46.69,122.08-136s-61.33-136-122-136Zm54.66,136c0,45.44-28,77.18-68.09,77.18-39.62,0-69.53-33.17-69.53-77.18s29.91-77.17,69.53-77.17c39.44,0,68.09,32.45,68.09,77.17Zm224.79-136c-78.13,0-139.32,60.15-139.32,137,0,76,60.79,135.47,138.38,135.47,78.39,0,139.76-59.94,139.76-136.45,0-76.24-61-136-138.82-136Zm0,213.61c-41.55,0-72.89-33.4-72.89-77.65,0-44.45,30.27-76.71,72-76.71s73.33,33.39,73.33,77.68c0,44.44-30.45,76.68-72.39,76.68Zm305.63-208.31H1822.7V222.94a4.23,4.23,0,0,0-4.21-4.24h-58a4.26,4.26,0,0,0-4.25,4.24v65.21h-27.85a4.24,4.24,0,0,0-4.21,4.25v49.81a4.24,4.24,0,0,0,4.21,4.25h27.85V475.37c0,52.07,25.92,78.48,77.09,78.48,20.77,0,38-4.3,54.26-13.52a4.16,4.16,0,0,0,2.15-3.67V489.21a4.23,4.23,0,0,0-2-3.59,4.11,4.11,0,0,0-4.11-.18,73.16,73.16,0,0,1-34,8.2c-18.58,0-26.9-8.46-26.9-27.36V346.48h63.79a4.23,4.23,0,0,0,4.21-4.25v-49.8a4.11,4.11,0,0,0-4-4.25h-.19Zm222.23.25v-8c0-23.57,9.05-34.07,29.28-34.07,12.09,0,21.8,2.4,32.68,6a4.22,4.22,0,0,0,5.55-4V199.47a4.2,4.2,0,0,0-3-4.07,159,159,0,0,0-48.17-6.92c-53.5,0-81.83,30.15-81.83,87.15V287.9h-27.85a4.26,4.26,0,0,0-4.25,4.24v50.07a4.27,4.27,0,0,0,4.25,4.25h27.85v198.8a4.25,4.25,0,0,0,4.25,4.25h57.93a4.22,4.22,0,0,0,4.25-4.25V346.47h54.13l82.91,198.79c-9.4,20.86-18.67,25-31.29,25-10.21,0-21-3-32-9.09a4.66,4.66,0,0,0-3.36-.31,4.18,4.18,0,0,0-2.5,2.28l-19.66,43.12a4.23,4.23,0,0,0,1.84,5.5c20.5,11.1,39,15.85,61.87,15.85,42.8,0,66.48-20,87.3-73.6l100.55-259.82a4.24,4.24,0,0,0-3.9-5.79h-60.34a4.24,4.24,0,0,0-4,2.85l-61.83,176.54-67.69-176.66a4.22,4.22,0,0,0-3.94-2.73h-99Zm-128.84-.25h-58a4.27,4.27,0,0,0-4.25,4.25V545.26a4.25,4.25,0,0,0,4.25,4.25h58a4.25,4.25,0,0,0,4.25-4.25V292.42a4.23,4.23,0,0,0-4.23-4.25h0ZM1951.23,173a41.57,41.57,0,1,0,41.54,41.55A41.56,41.56,0,0,0,1951.23,173ZM2459,369.45a40.9,40.9,0,1,1,41-41,40.63,40.63,0,0,1-41,41Zm.23-77.74c-20.91,0-36.71,16.61-36.71,37s15.71,36.72,36.48,36.72,36.71-16.6,36.71-36.95-15.71-36.72-36.48-36.72Zm9,40.91,11.55,16.16h-9.76L2459.66,334h-8.91v14.82h-8.14V306h19.07c10,0,16.52,5.09,16.52,13.66,0,7-4,11.31-9.9,13Zm-6.9-19.31h-10.61v13.54h10.61c5.29,0,8.47-2.59,8.47-6.78C2469.83,315.66,2466.65,313.31,2461.36,313.31Z" transform="translate(0 -0.6)"/></svg>